<svg width="163" height="87" viewBox="0 0 163 87" fill="none" xmlns="http://www.w3.org/2000/svg">
<path d="M70.5608 75.4444C69.114 75.4444 68.3906 75.1189 68.3906 74.4679C68.3906 74.0628 68.6293 73.8602 69.1068 73.8602L70.2353 74.0121C71.5373 74.0121 72.2535 72.9922 72.3837 70.9522C72.4416 70.171 72.4705 69.151 72.4705 67.8923V46.5816C72.4705 43.6447 72.1377 41.7711 71.4722 40.9609C70.9659 40.3822 70.0616 40.035 68.7596 39.9193C68.0072 39.8469 67.6311 39.6082 67.6311 39.2031C67.6311 39.0295 67.7324 38.8776 67.9349 38.7474C68.1374 38.6027 68.4196 38.5304 68.7813 38.5304C69.1574 38.5304 69.4902 38.5448 69.7795 38.5738L70.691 38.6606C71.5156 38.7474 72.2173 38.7908 72.796 38.7908C73.6207 38.7908 74.3223 38.7401 74.901 38.6389C75.4942 38.5376 75.9065 38.487 76.138 38.487C76.384 38.487 76.5865 38.5159 76.7457 38.5738C76.9193 38.6172 77.0495 38.7257 77.1363 38.8993C77.281 39.2031 77.3533 39.9554 77.3533 41.1562V67.8923C77.3533 69.8021 77.4256 71.0463 77.5703 71.625C77.715 72.2037 77.8452 72.6594 77.9609 72.9922C78.0912 73.3105 78.3082 73.5636 78.612 73.7517C78.9303 73.9253 79.2413 74.0121 79.5451 74.0121L80.6736 73.8602C81.1221 73.8602 81.3464 74.0555 81.3464 74.4462C81.3464 75.1117 80.6881 75.4444 79.3715 75.4444C78.9954 75.4444 78.5252 75.401 77.9609 75.3142C76.9916 75.184 76.2176 75.1189 75.6389 75.1189C75.0602 75.1189 74.6406 75.1261 74.3802 75.1406C74.1343 75.1406 73.8883 75.1551 73.6424 75.184L72.9045 75.2274C72.6586 75.2563 72.3982 75.2853 72.1233 75.3142C71.5012 75.401 70.9803 75.4444 70.5608 75.4444ZM105.044 75.4444C104.22 75.4444 103.749 74.7066 103.634 73.2309C102.361 74.5474 100.682 75.401 98.599 75.7916C97.9335 75.9074 97.0509 75.9653 95.9514 75.9653C94.8663 75.9653 93.7596 75.7989 92.6311 75.4661C91.5026 75.1478 90.5622 74.6921 89.8099 74.0989C88.3053 72.9126 87.553 71.2416 87.553 69.0859C87.553 66.7422 88.4861 64.9699 90.3524 63.7691C91.9873 62.7129 94.0923 62.1849 96.6675 62.1849C99.2428 62.1849 101.558 62.7346 103.612 63.8342V61.23C103.612 59.1901 103.012 57.6204 101.811 56.5208C100.697 55.5081 99.1632 55.0017 97.2101 55.0017C94.9097 55.0017 92.8264 56.2749 90.9601 58.8212C90.2801 59.7182 89.7665 60.1666 89.4193 60.1666C89.0721 60.1666 88.8984 60.0075 88.8984 59.6892C88.8984 59.3709 88.9925 58.9369 89.1806 58.3871C89.5423 57.331 89.7231 55.8191 89.7231 53.8515C89.7231 53.215 89.9546 52.8967 90.4175 52.8967C90.9962 52.8967 91.6473 53.1788 92.3707 53.743C92.5732 53.9022 92.7468 53.9818 92.8915 53.9818C93.094 53.9818 93.34 53.9311 93.6293 53.8298C93.9187 53.7141 94.2442 53.6201 94.6059 53.5477C94.9821 53.4609 95.3799 53.3813 95.7995 53.309C96.8122 53.1354 97.579 53.0486 98.0998 53.0486C103.757 53.0486 107.048 54.8209 107.974 58.3654C108.249 59.4216 108.386 60.55 108.386 61.7509V67.9574C108.386 70.0552 108.437 71.3501 108.538 71.842C108.639 72.3339 108.755 72.7462 108.885 73.079C109.03 73.4117 109.305 73.6649 109.71 73.8385C110.115 74.0121 110.513 74.0989 110.904 74.0989L112.119 73.9253C112.582 73.9253 112.813 74.1134 112.813 74.4896C112.813 75.1695 112.141 75.5095 110.795 75.5095L107.475 75.3142C107.287 75.3142 107.091 75.3215 106.889 75.3359L106.325 75.3793C105.934 75.4227 105.507 75.4444 105.044 75.4444ZM93.9549 65.5703C93.5064 65.9754 93.1664 66.4384 92.9349 66.9592C92.7179 67.48 92.6094 68.0732 92.6094 68.7387C92.6094 69.4042 92.7251 70.048 92.9566 70.6701C93.2026 71.2778 93.557 71.7986 94.02 72.2326C94.9748 73.1296 96.342 73.5781 98.1215 73.5781C99.7419 73.5781 101.203 73.0862 102.505 72.1024C102.925 71.7841 103.294 71.4152 103.612 70.9956V65.8307C102.498 65.1363 101.16 64.6516 99.5972 64.3767C99.0909 64.2899 98.4832 64.2465 97.7743 64.2465C97.0654 64.2465 96.3637 64.3695 95.6693 64.6154C94.9893 64.8469 94.4178 65.1652 93.9549 65.5703ZM133.169 70.1059C133.603 70.1059 133.82 70.3157 133.82 70.7352C133.82 71.2271 133.459 71.965 132.735 72.9488C132.026 73.9181 131.093 74.6632 129.936 75.184C128.778 75.7048 127.606 75.9653 126.42 75.9653C125.234 75.9653 124.199 75.8495 123.317 75.618C122.434 75.3866 121.689 75.0104 121.082 74.4896C119.78 73.39 119.128 71.6756 119.128 69.3463V55.2621H116.872C115.671 55.2621 114.984 55.103 114.81 54.7847C114.752 54.669 114.723 54.5315 114.723 54.3724C114.723 54.2132 114.774 54.083 114.875 53.9818C114.991 53.866 115.135 53.772 115.309 53.6996C115.497 53.6273 115.714 53.5622 115.96 53.5043L116.72 53.3307C119.02 52.7809 120.575 51.2329 121.385 48.6866C121.675 47.8041 121.892 46.8492 122.036 45.822C122.196 44.7804 122.369 44.1149 122.557 43.8255C122.745 43.5217 122.977 43.3698 123.252 43.3698C123.541 43.3698 123.736 43.5362 123.838 43.8689C123.953 44.2017 124.011 44.7587 124.011 45.5399V53.5043C127.961 53.403 130.203 53.3524 130.739 53.3524C131.288 53.3524 131.737 53.3741 132.084 53.4175C132.431 53.4465 132.706 53.4971 132.909 53.5694C133.256 53.6996 133.43 53.9239 133.43 54.2422C133.43 54.9221 132.591 55.2621 130.912 55.2621H124.011V68.717C124.011 70.9305 124.699 72.3845 126.073 73.079C126.55 73.3249 127.028 73.4479 127.505 73.4479C127.983 73.4479 128.388 73.4117 128.72 73.3394C129.068 73.2526 129.429 73.1151 129.806 72.9271C130.659 72.522 131.39 71.8854 131.997 71.0173C132.417 70.4097 132.808 70.1059 133.169 70.1059ZM141.307 72.9271C140.208 71.9288 139.332 70.7208 138.681 69.3029C138.045 67.8851 137.727 66.3588 137.727 64.7239C137.727 63.0891 138.016 61.5845 138.595 60.2101C139.188 58.8212 140.02 57.5987 141.09 56.5425C143.434 54.2132 146.349 53.0486 149.836 53.0486C152.411 53.0486 154.603 53.743 156.411 55.1319C157.497 55.971 158.495 57.1863 159.406 58.7778C159.782 59.4433 159.97 59.9713 159.97 60.362C159.97 60.9985 159.638 61.4326 158.972 61.664C155.124 63.0674 151.044 64.2899 146.733 65.3316L143.195 66.1779C143.702 68.4349 144.751 70.2216 146.342 71.5382C147.861 72.8113 149.59 73.4479 151.529 73.4479C153.366 73.4479 155.102 72.862 156.737 71.6901C157.243 71.3284 157.627 70.9667 157.887 70.605C158.148 70.2289 158.343 69.9757 158.473 69.8455C158.618 69.7153 158.784 69.6502 158.972 69.6502C159.377 69.6502 159.58 69.8382 159.58 70.2144C159.58 70.7208 159.327 71.3212 158.82 72.0156C158.314 72.7101 157.735 73.3032 157.084 73.7951C156.448 74.2726 155.753 74.6776 155.001 75.0104C153.511 75.647 151.876 75.9653 150.096 75.9653C148.331 75.9653 146.704 75.7048 145.214 75.184C143.723 74.6632 142.421 73.9109 141.307 72.9271ZM142.935 64.355C147.854 63.1253 151.63 62.0474 154.263 61.1215C154.61 61.0058 154.784 60.8032 154.784 60.5139C154.784 60.2245 154.726 59.899 154.61 59.5373C154.495 59.1612 154.328 58.7705 154.111 58.3654C153.894 57.9603 153.626 57.5625 153.308 57.1719C152.99 56.7668 152.621 56.4051 152.201 56.0868C151.275 55.3923 150.335 55.0451 149.38 55.0451C148.425 55.0451 147.565 55.2187 146.798 55.566C146.031 55.8987 145.358 56.4123 144.78 57.1068C143.535 58.5969 142.913 60.7164 142.913 63.4653V63.921C142.913 64.0657 142.92 64.2103 142.935 64.355Z" fill="#474747"/>
<path d="M3 37.7803H56.9628C61.4224 37.7803 65.2066 34.4677 65.2218 30.0081C65.2578 19.4154 63.1078 5.0733 54.463 3.79173C36.4509 1.12148 32.8485 5.85155 30.79 8.42646C29.1432 10.4864 30.1038 54.2597 30.79 75.8889M17.2222 75.8889H44.7778" stroke="url(#paint0_radial_4_652)" stroke-width="5.33333" stroke-linecap="round"/>
<defs>
<radialGradient id="paint0_radial_4_652" cx="0" cy="0" r="1" gradientUnits="userSpaceOnUse" gradientTransform="translate(-1.44445 32.3333) rotate(5.1463) scale(66.4679 121.042)">
<stop stop-color="#7EFF69"/>
<stop offset="1"/>
</radialGradient>
</defs>
</svg>
